<svg width="21" height="21" viewBox="0 0 21 21" fill="none" xmlns="http://www.w3.org/2000/svg">
<path d="M10.276 10.682C11.2922 10.682 12.2856 10.3807 13.1305 9.8161C13.9755 9.25153 14.634 8.44908 15.0229 7.51024C15.4118 6.57139 15.5135 5.53831 15.3153 4.54163C15.117 3.54496 14.6277 2.62946 13.9091 1.91089C13.1906 1.19233 12.275 0.702984 11.2784 0.504733C10.2817 0.306483 9.24862 0.408232 8.30977 0.797115C7.37093 1.186 6.56848 1.84455 6.00391 2.68949C5.43934 3.53443 5.138 4.52781 5.138 5.54401C5.13787 6.21878 5.27068 6.88696 5.52884 7.51039C5.787 8.13382 6.16546 8.70028 6.64259 9.17742C7.11973 9.65455 7.68619 10.033 8.30962 10.2912C8.93305 10.5493 9.60123 10.6821 10.276 10.682ZM10.276 13.251C6.847 13.251 0 14.973 0 18.389V20.958H20.552V18.389C20.552 14.973 13.706 13.251 10.276 13.251Z" fill="black"/>
</svg>
