<svg width="18" height="22" viewBox="0 0 18 22" fill="none" xmlns="http://www.w3.org/2000/svg">
<path d="M9 10.2751C6.55996 7.99133 3.34206 6.72205 0 6.7251V17.7251C3.34206 17.722 6.55996 18.9913 9 21.2751C11.4426 18.9954 14.6588 17.7268 18 17.7251V6.7251C14.6579 6.72205 11.44 7.99133 9 10.2751ZM9 6.7251C9.59334 6.7251 10.1734 6.54915 10.6667 6.21951C11.1601 5.88986 11.5446 5.42133 11.7716 4.87315C11.9987 4.32497 12.0581 3.72177 11.9424 3.13983C11.8266 2.55789 11.5409 2.02334 11.1213 1.60378C10.7018 1.18422 10.1672 0.898499 9.58527 0.782743C9.00333 0.666988 8.40013 0.726398 7.85195 0.95346C7.30377 1.18052 6.83524 1.56504 6.50559 2.05839C6.17595 2.55174 6 3.13176 6 3.7251C6 4.52075 6.31607 5.28381 6.87868 5.84642C7.44129 6.40903 8.20435 6.7251 9 6.7251Z" fill="black"/>
</svg>
