<svg width="20" height="16" viewBox="0 0 20 16" fill="none" xmlns="http://www.w3.org/2000/svg">
<path d="M12.52 14.6777C11.71 14.8877 10.87 14.9877 10 14.9877C6.73 14.9877 3.8 13.4577 1.8 11.0377C0.4 9.34766 0.4 6.73766 1.8 5.05766C1.96 4.85766 2.14 4.66766 2.32 4.47766" stroke="#C2C3CB" stroke-width="1.5" stroke-linecap="round" stroke-linejoin="round"/>
<path d="M15.3998 13.4577C16.4498 12.8177 17.3998 11.9977 18.1998 11.0377C19.5998 9.35767 19.5998 6.73767 18.1998 5.05767C16.1998 2.63767 13.2698 1.10767 9.99984 1.10767C8.01984 1.10767 6.17984 1.65766 4.58984 2.63766" stroke="#C2C3CB" stroke-width="1.5" stroke-linecap="round" stroke-linejoin="round"/>
<path d="M7.04068 7.97286C7.05687 7.16521 7.40544 6.44027 7.9408 5.9187L12.0171 10.1448C11.4818 10.6664 10.7312 10.9746 9.9203 10.9583C8.28897 10.9256 7.0081 9.59765 7.04068 7.97286Z" stroke="#C2C3CB" stroke-width="1.5" stroke-linecap="round" stroke-linejoin="round"/>
<path d="M13.0798 8.04765C13.0798 8.89765 12.7298 9.66765 12.1798 10.2277L7.81982 5.86765C8.36982 5.30765 9.14982 4.96765 9.99982 4.96765C11.7098 4.96765 13.0798 6.33765 13.0798 8.04765Z" stroke="#C2C3CB" stroke-width="1.5" stroke-linecap="round" stroke-linejoin="round"/>
</svg>
