<svg width="30" height="30" viewBox="0 0 30 30" fill="none" xmlns="http://www.w3.org/2000/svg">
<circle cx="15" cy="15" r="15" fill="#5E626C"/>
<circle cx="15" cy="15" r="12" fill="#0A0D17"/>
<path d="M17.8603 13.2375L17.5492 14.4222H11.8347L12.1415 13.2375H17.8603ZM14.8901 19.8L11.9753 16.3313L11.9796 15.266H13.4199C13.7409 15.266 14.0094 15.2063 14.2253 15.087C14.4412 14.9677 14.6031 14.8057 14.7111 14.6012C14.8191 14.3966 14.8745 14.1637 14.8773 13.9023C14.8745 13.5103 14.7594 13.1907 14.5321 12.9435C14.3077 12.6935 13.937 12.5685 13.4199 12.5685H11.8347L12.1841 11.0728H13.4199C14.1443 11.0728 14.748 11.1822 15.231 11.4009C15.7168 11.6168 16.0804 11.925 16.3219 12.3256C16.5662 12.7262 16.6898 13.2035 16.6926 13.7574C16.6898 14.2489 16.6074 14.6779 16.4455 15.0444C16.2864 15.4108 16.035 15.7162 15.6912 15.9606C15.3503 16.2049 14.9057 16.3867 14.3574 16.506L14.2892 16.5316L16.8972 19.7233V19.8H14.8901ZM17.8688 11.0728L17.5492 12.2745H12.8446L13.1642 11.0728H17.8688Z" fill="white"/>
</svg>
