<svg width="20" height="19" viewBox="0 0 20 19" fill="none" xmlns="http://www.w3.org/2000/svg">
<path d="M10 18.35L8.55002 17.03C3.40002 12.36 1.62757e-05 9.28002 1.62757e-05 5.50002C-0.00706563 4.77578 0.13036 4.0574 0.404253 3.38691C0.678146 2.71642 1.08301 2.10728 1.59515 1.59515C2.10728 1.08301 2.71642 0.678146 3.38691 0.404253C4.0574 0.13036 4.77578 -0.00706563 5.50002 1.62757e-05C6.35589 0.00654384 7.20041 0.196473 7.97667 0.557002C8.75293 0.91753 9.44288 1.44028 10 2.09002C10.5572 1.44028 11.2471 0.91753 12.0234 0.557002C12.7996 0.196473 13.6441 0.00654384 14.5 1.62757e-05C15.2243 -0.00706563 15.9426 0.13036 16.6131 0.404253C17.2836 0.678146 17.8927 1.08301 18.4049 1.59515C18.917 2.10728 19.3219 2.71642 19.5958 3.38691C19.8697 4.0574 20.0071 4.77578 20 5.50002C20 9.28002 16.6 12.36 11.45 17.04L10 18.35Z" fill="black"/>
</svg>
