<svg width="58" height="58" viewBox="0 0 58 58" fill="none" xmlns="http://www.w3.org/2000/svg">
<path d="M29 58C45.0163 58 58 45.0163 58 29C58 12.9837 45.0163 0 29 0C12.9837 0 0 12.9837 0 29C0 45.0163 12.9837 58 29 58Z" fill="black"/>
<path d="M29 57.5C44.7401 57.5 57.5 44.7401 57.5 29C57.5 13.2599 44.7401 0.5 29 0.5C13.2599 0.5 0.5 13.2599 0.5 29C0.5 44.7401 13.2599 57.5 29 57.5Z" stroke="#F2F2F2"/>
<path fill-rule="evenodd" clip-rule="evenodd" d="M37.161 29.9739V34.514C37.161 37.15 37.588 39.7619 35.361 40.3009C34.5994 40.3907 33.8309 40.4074 33.066 40.3509C32.386 40.3509 31.32 40.4919 30.966 40.1019C30.523 39.6019 30.766 38.0689 30.766 37.2579C30.766 36.2229 30.999 34.886 30.666 34.315C30.31 33.703 27.959 33.823 27.673 34.315C27.356 34.86 27.573 36.2879 27.573 37.2579C27.573 38.2889 27.766 39.7889 27.273 40.2019C26.931 40.4889 25.686 40.3519 25.173 40.3519C24.4399 40.4106 23.7027 40.3938 22.973 40.302C20.735 39.759 21.173 37.102 21.173 34.315V30.0239C20.123 29.7639 18.096 30.45 17.98 29.276C17.921 28.676 18.72 28.1359 19.18 27.6759C21.97 24.8859 24.668 22.1379 27.412 19.3939C27.757 19.0489 28.62 18.0139 29.058 17.9939C29.67 17.9699 30.279 18.766 30.704 19.194L39.135 27.625C39.566 28.056 40.36 28.6809 40.335 29.2249C40.291 30.4429 38.283 29.8219 37.161 29.9739Z" fill="white"/>
</svg>
