<?xml version="1.0" standalone="no"?>
<!DOCTYPE svg PUBLIC "-//W3C//DTD SVG 20010904//EN"
 "http://www.w3.org/TR/2001/REC-SVG-20010904/DTD/svg10.dtd">
<svg version="1.0" xmlns="http://www.w3.org/2000/svg"
 width="1024.000000pt" height="1024.000000pt" viewBox="0 0 1024.000000 1024.000000"
 preserveAspectRatio="xMidYMid meet">

<g transform="translate(0.000000,1024.000000) scale(0.100000,-0.100000)"
fill="#FFF" stroke="none">
<path d="M3560 8425 c-289 -63 -527 -266 -623 -532 -45 -125 -49 -172 -48
-590 1 -216 0 -393 -2 -393 -1 0 -29 25 -62 56 -212 201 -491 249 -738 127
-100 -50 -218 -169 -270 -273 -75 -152 -71 -91 -77 -1110 -7 -1014 -5 -980
-74 -1126 -19 -40 -65 -119 -104 -176 -179 -266 -240 -402 -284 -638 -7 -34
-13 -446 -17 -1080 -8 -1128 -2 -1041 -71 -1217 -44 -116 -97 -198 -175 -277
-39 -39 -214 -199 -390 -355 -176 -156 -389 -345 -472 -420 l-153 -136 0 -142
0 -143 69 0 70 0 293 261 c161 144 329 294 373 332 312 275 446 401 500 470
100 126 179 306 231 527 16 68 18 168 24 1110 l6 1035 23 80 c33 118 87 225
199 397 134 207 168 274 215 433 20 68 21 95 27 1000 6 1020 2 953 65 1061 84
143 286 189 435 101 133 -79 266 -255 325 -430 l25 -76 1 -1503 c0 -827 4
-1620 8 -1763 8 -254 9 -262 39 -355 45 -137 108 -238 216 -345 76 -76 107
-99 187 -138 66 -33 126 -54 192 -68 94 -19 139 -19 1522 -17 784 2 1425 2
1425 0 0 -21 -169 -217 -279 -322 -234 -226 -568 -531 -749 -687 -94 -81 -233
-176 -372 -253 -294 -164 -438 -314 -533 -552 -26 -66 -77 -252 -77 -282 0
-14 21 -16 155 -16 116 0 157 3 159 12 2 7 13 52 25 101 38 158 114 277 236
367 28 20 117 74 200 120 301 166 407 251 920 734 444 417 605 613 756 917 47
95 49 97 116 135 37 21 91 54 118 73 114 81 555 441 620 506 171 172 261 417
235 643 -23 203 -121 372 -275 473 l-63 42 38 46 c60 71 108 158 137 246 22
69 26 98 27 210 1 95 -4 147 -17 194 -51 187 -183 353 -342 431 -101 50 -173
63 -315 58 l-125 -4 -2 73 -1 74 156 137 c339 299 650 582 707 644 140 153
215 350 215 566 0 122 -24 222 -80 337 -171 351 -525 506 -895 390 -44 -13
-85 -25 -91 -25 -8 0 -13 43 -17 128 -9 228 -79 399 -230 559 -50 53 -161 135
-234 172 -23 11 -81 33 -130 48 l-88 28 -1375 2 c-1149 1 -1386 -1 -1440 -12z
m1495 -884 c70 -31 125 -113 125 -186 0 -43 -23 -98 -56 -135 -126 -139 -353
-52 -354 135 0 110 89 205 194 205 28 0 69 -9 91 -19z m-455 -157 l-5 -86 -60
-23 c-100 -37 -221 -102 -282 -151 -32 -26 -59 -48 -60 -48 -1 -1 4 -20 12
-41 8 -22 14 -66 15 -97 1 -217 -230 -363 -424 -268 -148 71 -211 240 -147
388 34 77 112 144 192 167 71 19 150 15 201 -11 25 -13 33 -13 47 -2 10 7 45
34 79 59 83 63 241 143 343 173 46 14 86 25 89 25 3 1 3 -38 0 -85z m875 49
c106 -33 194 -74 265 -123 33 -21 70 -42 84 -46 40 -10 76 -59 76 -104 0 -30
-6 -43 -31 -64 -17 -14 -41 -26 -54 -26 -13 0 -60 25 -105 56 -91 62 -240 137
-315 159 l-50 15 -2 85 -2 85 27 -6 c15 -4 63 -18 107 -31z m716 -173 c40 -22
48 -57 40 -180 -10 -153 -28 -188 -122 -229 -25 -11 -69 -25 -97 -31 -28 -7
-68 -25 -88 -41 -48 -38 -92 -39 -128 -2 -31 30 -41 62 -32 99 12 46 51 71
147 94 131 30 136 33 150 80 10 31 10 52 1 91 -16 66 -16 63 14 98 28 33 75
42 115 21z m1369 -28 c106 -42 205 -144 251 -262 46 -117 36 -287 -23 -405
-48 -95 -146 -190 -690 -674 l-38 -33 0 630 0 630 48 35 c108 79 199 108 317
103 50 -2 101 -11 135 -24z m-2849 -167 c88 -79 214 -116 322 -95 77 15 151
51 198 96 l36 36 51 -15 c27 -9 91 -33 141 -54 l91 -38 0 -77 c0 -42 5 -100
12 -128 l12 -51 -160 -160 c-87 -87 -163 -159 -168 -159 -5 0 -39 12 -75 26
-79 32 -228 44 -312 24 -102 -23 -196 -76 -273 -154 -76 -76 -113 -141 -142
-244 l-17 -62 -211 0 -211 0 -28 59 c-15 33 -38 73 -52 89 -14 17 -25 40 -25
52 0 12 16 71 37 132 39 120 32 112 138 143 120 35 223 125 278 245 24 53 31
83 35 157 l5 92 81 42 c63 33 146 66 195 78 2 1 21 -15 42 -34z m1565 -360
c43 -75 86 -184 115 -295 15 -58 25 -108 23 -112 -2 -3 -21 -2 -41 4 -20 5
-58 7 -85 4 l-47 -7 -11 43 c-19 75 -61 191 -92 253 -29 57 -30 60 -12 73 11
7 39 28 64 47 25 19 48 34 52 34 4 1 19 -19 34 -44z m-563 -145 c35 -33 118
-70 186 -82 61 -12 64 -14 81 -53 10 -23 30 -85 45 -138 l28 -96 -33 -38 c-18
-20 -44 -61 -57 -90 l-24 -53 -210 0 c-159 0 -210 3 -213 13 -31 115 -57 174
-109 249 -10 16 7 37 133 163 80 80 146 145 148 145 1 0 13 -9 25 -20z m-1986
-101 l23 -14 -23 -72 -22 -73 -45 6 c-25 3 -65 1 -89 -4 l-44 -10 6 41 c6 43
34 134 62 199 l15 38 48 -48 c26 -26 57 -55 69 -63z m1380 -274 c58 -29 101
-77 135 -154 27 -59 22 -157 -12 -224 -46 -92 -150 -157 -252 -157 -238 0
-376 266 -233 453 85 111 233 145 362 82z m-1398 -85 c142 -72 161 -254 38
-354 -64 -51 -193 -48 -263 6 -34 28 -74 113 -74 161 0 147 170 253 299 187z
m2707 -1 c73 -35 116 -105 116 -189 0 -210 -286 -283 -387 -99 -60 111 -9 252
107 299 41 16 119 11 164 -11z m-1971 -326 c7 -24 27 -70 45 -104 l32 -62
-148 -149 c-82 -82 -157 -153 -167 -159 -13 -7 -25 -4 -50 14 -39 30 -131 77
-150 77 -16 0 -28 23 -73 148 l-34 92 44 64 c24 36 47 78 51 95 l7 31 215 -2
216 -3 12 -42z m1514 -8 c12 -30 38 -73 56 -96 l33 -42 -38 -106 c-21 -58 -41
-114 -45 -123 -4 -9 -20 -20 -35 -23 -77 -17 -198 -123 -245 -215 -52 -102
-62 -238 -25 -344 11 -33 20 -60 20 -62 0 -7 -157 -88 -213 -110 -34 -14 -114
-39 -177 -56 -215 -57 -502 -48 -710 22 -93 31 -242 99 -277 127 l-23 18 26
80 c27 82 27 83 11 266 -2 21 28 55 174 197 l175 170 60 -29 c105 -52 232 -70
350 -48 186 33 370 201 425 387 l12 42 212 0 211 0 23 -55z m-2206 -322 c21
-49 50 -110 65 -138 27 -49 28 -50 87 -57 96 -12 189 -88 225 -183 7 -16 12
-57 12 -90 1 -155 -118 -275 -272 -275 -234 0 -365 271 -219 453 l30 37 -34
64 c-32 59 -88 191 -102 242 -5 20 -3 21 37 17 24 -3 59 0 78 5 19 6 40 11 45
11 6 1 28 -38 48 -86z m2595 72 c41 0 52 -3 52 -16 0 -26 -37 -125 -84 -225
l-45 -94 42 -71 c38 -66 41 -78 41 -143 -1 -153 -112 -266 -264 -266 -105 0
-180 48 -226 145 -37 79 -27 170 27 247 27 37 100 85 151 99 36 9 42 17 92
117 29 59 57 118 61 131 4 13 14 39 21 57 13 31 17 33 47 26 17 -4 56 -7 85
-7z m1013 -533 c71 -32 125 -86 164 -165 77 -157 50 -341 -70 -475 -60 -66
-564 -481 -623 -512 -39 -21 -61 -25 -132 -25 -110 0 -174 29 -253 115 -152
164 -134 394 43 550 98 87 528 436 586 476 28 20 69 42 90 50 50 18 138 12
195 -14z m-3743 -806 c26 -24 57 -48 69 -55 16 -8 337 -11 1197 -11 l1176 0 0
-31 c0 -49 28 -147 62 -213 50 -99 120 -178 214 -242 l85 -58 -41 -41 -40 -40
-568 -5 c-655 -6 -574 9 -714 -128 l-87 -84 -110 100 c-60 56 -120 104 -133
107 -13 3 -268 6 -568 8 -486 2 -550 4 -588 19 -93 37 -176 122 -214 218 -32
84 -36 212 -9 298 39 118 117 202 189 202 25 0 44 -10 80 -44z m3875 -312 c66
-22 131 -84 168 -160 55 -110 52 -270 -7 -386 -37 -73 -121 -156 -336 -331
-369 -300 -391 -312 -543 -305 -104 5 -150 24 -225 94 -72 68 -103 133 -108
229 -8 146 26 193 279 384 615 467 600 457 657 477 48 17 60 17 115 -2z
m-2444 -850 c61 -18 123 -69 154 -128 29 -54 31 -194 4 -243 -28 -52 -86 -101
-146 -124 -244 -92 -454 198 -294 407 46 61 124 100 204 103 14 1 49 -6 78
-15z"/>
<path d="M3856 7056 c-49 -29 -65 -59 -66 -116 0 -110 100 -171 198 -121 96
49 96 193 1 241 -50 26 -86 25 -133 -4z"/>
<path d="M3808 5074 c-79 -42 -74 -160 8 -199 40 -19 58 -19 94 0 44 23 70 62
70 107 0 57 -51 108 -106 108 -22 -1 -51 -7 -66 -16z"/>
<path d="M4692 3900 l-1024 -5 -24 -30 c-34 -43 -32 -95 5 -137 l29 -33 1029
-3 c565 -2 1048 0 1072 3 129 19 137 177 10 204 -27 6 -55 10 -62 9 -7 -2
-473 -5 -1035 -8z"/>
</g>
</svg>
