<svg width="20" height="20" viewBox="0 0 20 20" fill="none" xmlns="http://www.w3.org/2000/svg">
<path d="M10 0C8.02219 0 6.08879 0.58649 4.4443 1.6853C2.79981 2.78412 1.51809 4.3459 0.761209 6.17317C0.00433284 8.00043 -0.193701 10.0111 0.192152 11.9509C0.578004 13.8907 1.53041 15.6725 2.92894 17.0711C4.32746 18.4696 6.10929 19.422 8.0491 19.8079C9.98891 20.1937 11.9996 19.9957 13.8268 19.2388C15.6541 18.4819 17.2159 17.2002 18.3147 15.5557C19.4135 13.9112 20 11.9778 20 10C20 8.68678 19.7413 7.38642 19.2388 6.17317C18.7363 4.95991 17.9997 3.85752 17.0711 2.92893C16.1425 2.00035 15.0401 1.26375 13.8268 0.761205C12.6136 0.258658 11.3132 0 10 0ZM11.41 16.09V18H8.74V16.07C7.886 15.9685 7.09353 15.5743 6.49738 14.9544C5.90122 14.3345 5.53818 13.5273 5.47 12.67H7.43C7.53 13.72 8.25 14.54 10.08 14.54C12.04 14.54 12.48 13.56 12.48 12.95C12.48 12.12 12.04 11.34 9.81001 10.81C7.33001 10.21 5.63 9.19 5.63 7.14C5.63 5.42 7.02 4.3 8.74 3.93V2H11.41V3.95C12.2002 4.10587 12.9134 4.52688 13.4317 5.14336C13.95 5.75984 14.2422 6.53481 14.26 7.34H12.3C12.25 6.23 11.66 5.47 10.08 5.47C8.58 5.47 7.68 6.15 7.68 7.11C7.68 7.95 8.33001 8.5 10.35 9.02C12.37 9.54 14.53 10.41 14.53 12.93C14.52 14.76 13.15 15.76 11.41 16.09Z" fill="black"/>
</svg>
