<svg width="72" height="73" viewBox="0 0 72 73" fill="none" xmlns="http://www.w3.org/2000/svg">
<path d="M36 0.176025C28.8799 0.176025 21.9197 2.28739 15.9995 6.24312C10.0793 10.1989 5.46511 15.8213 2.74035 22.3994C0.0155981 28.9776 -0.697322 36.216 0.691746 43.1993C2.08081 50.1826 5.50948 56.5972 10.5442 61.6319C15.5789 66.6666 21.9934 70.0952 28.9768 71.4843C35.9601 72.8734 43.1985 72.1604 49.7766 69.4357C56.3548 66.7109 61.9772 62.0967 65.9329 56.1766C69.8887 50.2564 72 43.2962 72 36.176C71.9966 26.6293 68.2026 17.4745 61.4521 10.724C54.7015 3.97342 45.5468 0.179471 36 0.176025ZM36 10.976C38.1361 10.976 40.2241 11.6094 42.0002 12.7962C43.7762 13.9829 45.1605 15.6696 45.9779 17.643C46.7953 19.6165 47.0092 21.788 46.5925 23.883C46.1758 25.978 45.1472 27.9024 43.6368 29.4128C42.1264 30.9232 40.202 31.9518 38.107 32.3685C36.012 32.7852 33.8405 32.5714 31.867 31.7539C29.8936 30.9365 28.2069 29.5522 27.0201 27.7762C25.8334 26.0001 25.2 23.9121 25.2 21.776C25.1982 20.3572 25.4763 18.952 26.0184 17.6409C26.5605 16.3297 27.3559 15.1384 28.3592 14.1352C29.3624 13.1319 30.5537 12.3365 31.8649 11.7944C33.176 11.2523 34.5812 10.9742 36 10.976ZM36 62.096C31.7227 62.0959 27.512 61.0373 23.7431 59.0147C19.9743 56.9921 16.7645 54.0683 14.4 50.504C14.508 43.34 28.8 39.416 36 39.416C43.164 39.416 57.492 43.34 57.6 50.504C55.2355 54.0683 52.0257 56.9921 48.2569 59.0147C44.4881 61.0373 40.2773 62.0959 36 62.096Z" fill="#848484"/>
</svg>
