<svg width="9" height="9" viewBox="0 0 9 9" fill="none" xmlns="http://www.w3.org/2000/svg">
<path d="M4.375 0C3.50971 0 2.66385 0.256589 1.94438 0.73732C1.22492 1.21805 0.664162 1.90133 0.333029 2.70076C0.00189561 3.50019 -0.084744 4.37985 0.0840664 5.22852C0.252877 6.07719 0.669555 6.85674 1.28141 7.46859C1.89326 8.08045 2.67281 8.49713 3.52148 8.66594C4.37015 8.83475 5.24982 8.74811 6.04924 8.41697C6.84867 8.08584 7.53195 7.52509 8.01268 6.80562C8.49341 6.08615 8.75 5.24029 8.75 4.375C8.74947 3.21484 8.28837 2.10235 7.46801 1.28199C6.64765 0.461636 5.53516 0.000529995 4.375 0ZM3.5 6.563L1.313 4.375L1.93 3.758L3.5 5.324L6.821 2L7.438 2.621L3.5 6.563Z" fill="#6BB8D6"/>
</svg>
